
    <svg width="100%" height="100%" viewBox="0 0 400 400" version="1.1" xmlns="http://www.w3.org/2000/svg" xmlns:xlink="http://www.w3.org/1999/xlink" xml:space="preserve" xmlns:serif="http://www.serif.com/" style="fill-rule:evenodd;clip-rule:evenodd;stroke-linecap:round;stroke-linejoin:round;stroke-miterlimit:1.5;">
        
    <rect x="-13.723" y="-9.657" width="421.855" height="416.399" style="fill:rgb(67,67,64);stroke:black;stroke-width:3.2px;"/>

        
    <g id="face2">
        <g id="ear">
            <path d="M63.024,162.135C62.89,158.167 57.207,156.521 55.4,152.986C53.452,149.174 53.621,141.381 51.334,139.263C49.047,137.145 43.813,137.847 41.677,140.28C38.628,143.753 34.477,153.579 33.037,160.102C31.649,166.388 33.731,173.015 33.037,179.416C32.274,186.446 29.648,196.781 28.463,202.287C27.727,205.702 25.498,210.335 25.921,212.452C26.293,214.31 37.361,216.84 39.412,215.437C41.038,214.325 46.498,211.961 48.54,212.092C51.166,212.262 52.896,218.371 55.522,217.609C57.56,217.017 57.726,217.197 58.213,215.412C59.736,209.83 59.43,205.026 59.778,203.368C61.557,194.897 63.363,172.13 63.024,162.135Z" style="fill:rgb(255,254,156);stroke:black;stroke-width:4.94px;"/>
            <path d="M47.595,165.022C48.676,168.945 51.384,172.758 50.836,176.79C50.281,180.869 45.25,185.871 44.27,189.495C43.481,192.412 44.725,195.521 44.952,198.534" style="fill:rgb(255,254,156);stroke:black;stroke-width:4.94px;"/>
        </g>
        <path d="M175.914,358.343C171.82,360.148 176.504,371.285 176.122,376.663C175.788,381.375 174.769,386.101 173.624,390.612C172.49,395.078 165.574,401.16 169.252,403.727C172.93,406.295 191.146,407.683 195.692,406.017C199.545,404.605 196.553,397.838 196.524,393.734C196.49,388.738 194.789,380.688 195.483,376.039C196.047,372.263 203.519,368.398 200.688,365.838C197.426,362.889 180.008,356.539 175.914,358.343Z" style="fill:rgb(255,254,156);stroke:black;stroke-width:4.94px;"/>
        <path d="M252.097,61.499C220.344,46.404 122.284,47.531 71.665,90.47C58.483,101.651 70.733,131.16 65.565,151.461C60.013,173.273 58.789,206.099 56.417,224.651C54.791,237.366 54.13,251.842 51.334,262.77C48.87,272.404 40.237,281.491 39.644,290.216C39.052,298.929 43.371,308.429 47.776,315.121C52.141,321.752 58.986,326.792 66.074,330.368C75.307,335.028 90.537,339.737 103.177,343.075C122.745,348.242 165.523,356.967 183.482,361.372C192.749,363.645 203.219,367.048 210.928,369.504C217.258,371.522 223.091,371.369 229.733,371.537C236.425,371.707 243.795,368.742 250.064,366.455C255.758,364.377 270.857,359.522 275.985,356.29C286.065,349.936 299.619,340.957 311.563,332.402C320.985,325.652 332.486,316.222 339.009,311.055C342.971,307.916 346.887,304.701 349.174,300.381C351.461,296.061 352.487,290.592 352.732,285.133C353.071,277.594 353.798,265.761 352.732,256.163C351.631,246.252 349.513,235.239 346.125,225.667C342.762,216.167 337.23,206.353 332.402,198.729C328.084,191.912 322.067,185.684 317.154,179.924C312.561,174.539 307.447,169.61 302.922,164.168C297.078,157.137 286.912,146.972 282.084,137.738C277.436,128.85 275.815,118.086 273.952,108.767C272.179,99.906 272.596,88.776 270.902,81.83C269.609,76.529 266.921,70.479 263.787,67.09C260.853,63.919 255.993,63.363 252.097,61.499" style="fill:rgb(255,254,156);stroke:black;stroke-width:11.21px;"/>
        <g transform="matrix(1,0,0,1,-1.90597,3.81194)">
            <path d="M201.686,339.849C206.329,335.329 213.901,332.209 218.947,335.949C222.188,338.352 226.147,346.03 230.128,346.623C234.11,347.216 238.592,345.623 242.835,339.507C246.164,334.708 248.727,330.129 255.671,333.267" style="fill:none;stroke:black;stroke-width:3.2px;"/>
        </g>
    </g>

        
    <path id="punk" d="M221.701,22.518L188.392,95.799C169.38,77.199 140.785,68.182 101.788,69.568L90.13,45.21L113.862,56.244L112.613,18.563L133.431,47.709L144.673,7.321L161.81,53.605L158.338,44.228L184.228,18.147L187.767,46.668L221.701,22.518Z" style="fill:rgb(255,0,243);stroke:black;stroke-width:3.2px;"/>

        
    <g id="eye-r">
        <path d="M221.652,143.342C214.391,141.787 206.263,152.868 203.132,157.332C200.683,160.823 201.045,166.266 202.866,170.122C205.508,175.718 211.681,191.485 218.987,190.907C226.293,190.33 246.256,174.586 246.7,166.658C247.145,158.731 228.913,144.896 221.652,143.342Z" style="fill:rgb(102,102,102);stroke:black;stroke-width:3.2px;"/>
        <path d="M228.047,148.671C227.403,148.96 238.839,159.819 239.772,164.393C240.653,168.714 236.489,172.749 233.643,176.118C230.623,179.693 223.571,183.76 221.652,185.844C221.016,186.535 221.283,189.024 222.132,188.621C224.33,187.577 231.303,182.798 234.842,179.582C238.133,176.592 241.904,172.143 243.37,169.323C244.394,167.351 244.452,164.728 243.636,162.661C241.223,156.545 228.691,148.382 228.047,148.671Z" style="fill:rgb(140,140,140);"/>
    </g>
    <g id="eye-l">
        <g transform="matrix(1,0,0,1,-1.07655,-2.55282)">
            <path d="M149.489,144.073C140.988,142.963 126.435,156.661 126.955,165.058C127.476,173.455 142.645,192.943 151.146,194.054C159.647,195.164 178.347,176.386 177.827,167.989C177.306,159.592 157.99,145.183 149.489,144.073Z" style="fill:rgb(102,102,102);stroke:black;stroke-width:3.2px;"/>
        </g>
        <path d="M133.982,173.986C135.47,173.697 146.462,185.445 152.902,184.645C159.341,183.846 172.599,168.324 172.621,169.19C172.634,169.721 170.126,176.289 164.712,181.951C161.297,185.523 154.882,188.733 153.035,189.841C150.262,191.505 146.46,188.445 143.975,186.377C140.799,183.735 132.494,174.275 133.982,173.986Z" style="fill:rgb(140,140,140);"/>
    </g>

        
    <g id="mouth" transform="matrix(1,0,0,1,0,12.7065)">
        <path d="M189.422,280.57C191.37,271.591 196.8,260.138 204.848,255.733C212.895,251.328 224.077,249.041 232.293,252.683C240.51,256.326 251.861,267.592 254.149,277.588C256.436,287.583 252.539,302.843 246.016,309.535C239.494,316.227 223.823,318.248 215.013,317.74C207.253,317.292 202.811,313.38 197.946,307.318C192.779,300.88 187.474,289.549 189.422,280.57Z" style="fill:rgb(51,51,51);stroke:black;stroke-width:3.63px;"/>
        <g id="ball">
            <g transform="matrix(1,0,0,1,45.5551,60.1065)">
                <circle cx="176.27" cy="225.245" r="26.511" style="fill:url(#_Radial1);stroke:black;stroke-width:3.63px;"/>
            </g>
            <g transform="matrix(-0.996155,0.0876112,0.0876112,0.996155,423.456,-0.0942281)">
                <path d="M179.998,274.668L205.975,274.448C205.271,272.6 205.404,270.98 206.3,269.569L179.298,269.025C180.429,270.778 180.613,273.061 179.998,274.668Z" style="fill:rgb(210,0,0);stroke:black;stroke-width:0.91px;"/>
            </g>
            <g transform="matrix(1,0,0,1,-0.635321,16.5183)">
                <path d="M179.998,274.668L205.975,274.448C205.271,272.6 205.404,270.98 206.3,269.569L179.298,269.025C180.429,270.778 180.613,273.061 179.998,274.668Z" style="fill:rgb(210,0,0);stroke:black;stroke-width:0.91px;"/>
            </g>
        </g>
        <g id="teeth">
            <path d="M226.084,302.226L232.121,302.018L233.579,315.758L226.501,316.174L226.084,302.226Z" style="fill:white;stroke:black;stroke-width:2.2px;"/>
            <path d="M218.59,317.007L217.757,302.226L224.419,302.018L225.876,317.215L218.59,317.007Z" style="fill:white;stroke:black;stroke-width:2.2px;"/>
            <path d="M210.471,316.799L210.471,302.642L216.508,302.85L217.757,317.423L210.471,316.799Z" style="fill:white;stroke:black;stroke-width:2.2px;"/>
            <g transform="matrix(1,0,0,1,-6.39535,-2.13178)">
                <path d="M233.798,254.179L231.456,267.711L236.921,269.533L238.742,257.562L233.798,254.179Z" style="fill:white;stroke:black;stroke-width:2.2px;"/>
            </g>
            <g transform="matrix(1,0,0,1,-2.34496,0.106589)">
                <path d="M220.787,252.098L219.485,267.191L225.471,267.711L228.333,251.577L220.787,252.098Z" style="fill:white;stroke:black;stroke-width:2.2px;"/>
            </g>
            <g transform="matrix(1,0,0,1,2.45155,-1.17248)">
                <path d="M205.693,255.741L205.954,269.273L213.76,268.752L215.322,252.098L205.693,255.741Z" style="fill:white;stroke:black;stroke-width:2.2px;"/>
            </g>
        </g>
        <g id="first" transform="matrix(-0.984556,0.175072,0.175072,0.984556,397.615,-12.217)">
            <g transform="matrix(0.418584,0,0,1,28.5295,0)">
                <path d="M151.138,263.055C257.026,272.322 261.186,268.937 353.281,266.213C364.519,271.374 362.785,275.448 352.803,278.833C254.667,280.188 252.756,283.346 148.254,273.599L151.138,263.055Z" style="fill:black;stroke:black;stroke-width:3.26px;"/>
            </g>
            <g transform="matrix(1,0,0,1,1.99855,24.8153)">
                <ellipse cx="150.368" cy="247.859" rx="3.664" ry="3.248" style="fill:url(#_Radial2);"/>
            </g>
            <g transform="matrix(1,0,0,1,19.4858,24.3157)">
                <ellipse cx="150.368" cy="247.859" rx="3.664" ry="3.248" style="fill:url(#_Radial3);"/>
            </g>
        </g>
        <g id="first1" serif:id="first" transform="matrix(1,0,0,1,-0.635321,16.5183)">
            <g transform="matrix(0.418584,0,0,1,28.5295,0)">
                <path d="M34.007,253.346C139.895,262.614 261.186,268.937 353.281,266.213C364.519,271.374 362.785,275.448 352.803,278.833C254.667,280.188 134.299,272.999 29.797,263.251L34.007,253.346Z" style="fill:black;stroke:black;stroke-width:3.26px;"/>
            </g>
            <g transform="matrix(1,0,0,1,1.99855,24.8153)">
                <ellipse cx="150.368" cy="247.859" rx="3.664" ry="3.248" style="fill:url(#_Radial4);"/>
            </g>
            <g transform="matrix(1,0,0,1,19.4858,24.3157)">
                <ellipse cx="150.368" cy="247.859" rx="3.664" ry="3.248" style="fill:url(#_Radial5);"/>
            </g>
        </g>
    </g>
    <defs>
        <radialGradient id="_Radial1" cx="0" cy="0" r="1" gradientUnits="userSpaceOnUse" gradientTransform="matrix(-17.1542,-17.9869,17.9869,-17.1542,181.928,235.016)"><stop offset="0" style="stop-color:rgb(255,142,142);stop-opacity:1"/><stop offset="0.48" style="stop-color:rgb(221,33,33);stop-opacity:1"/><stop offset="1" style="stop-color:rgb(210,0,0);stop-opacity:1"/></radialGradient>
        <radialGradient id="_Radial2" cx="0" cy="0" r="1" gradientUnits="userSpaceOnUse" gradientTransform="matrix(3.66401,0,0,3.24764,150.368,247.859)"><stop offset="0" style="stop-color:white;stop-opacity:1"/><stop offset="0.46" style="stop-color:rgb(200,209,208);stop-opacity:1"/><stop offset="1" style="stop-color:rgb(185,196,195);stop-opacity:1"/></radialGradient>
        <radialGradient id="_Radial3" cx="0" cy="0" r="1" gradientUnits="userSpaceOnUse" gradientTransform="matrix(3.66401,0,0,3.24764,150.368,247.859)"><stop offset="0" style="stop-color:white;stop-opacity:1"/><stop offset="0.46" style="stop-color:rgb(200,209,208);stop-opacity:1"/><stop offset="1" style="stop-color:rgb(185,196,195);stop-opacity:1"/></radialGradient>
        <radialGradient id="_Radial4" cx="0" cy="0" r="1" gradientUnits="userSpaceOnUse" gradientTransform="matrix(3.66401,0,0,3.24764,150.368,247.859)"><stop offset="0" style="stop-color:white;stop-opacity:1"/><stop offset="0.46" style="stop-color:rgb(200,209,208);stop-opacity:1"/><stop offset="1" style="stop-color:rgb(185,196,195);stop-opacity:1"/></radialGradient>
        <radialGradient id="_Radial5" cx="0" cy="0" r="1" gradientUnits="userSpaceOnUse" gradientTransform="matrix(3.66401,0,0,3.24764,150.368,247.859)"><stop offset="0" style="stop-color:white;stop-opacity:1"/><stop offset="0.46" style="stop-color:rgb(200,209,208);stop-opacity:1"/><stop offset="1" style="stop-color:rgb(185,196,195);stop-opacity:1"/></radialGradient>
    </defs>

        
    <g transform="matrix(1,0,0,1,16.2642,-2.03303)">
        <path d="M185.823,205.555L198.834,249.875L180.13,252.722" style="fill:none;stroke:black;stroke-width:2.76px;"/>
    </g>

    </svg>
